<?xml version="1.0" encoding="utf-8"?>
<!-- Generator: Adobe Illustrator 16.0.0, SVG Export Plug-In . SVG Version: 6.00 Build 0)  -->
<!DOCTYPE svg PUBLIC "-//W3C//DTD SVG 1.1//EN" "http://www.w3.org/Graphics/SVG/1.1/DTD/svg11.dtd">
<svg version="1.1" id="Layer_1" xmlns="http://www.w3.org/2000/svg" xmlns:xlink="http://www.w3.org/1999/xlink" x="0px" y="0px"
	 width="283.46px" height="141.73px" viewBox="0 0 283.46 141.73" enable-background="new 0 0 283.46 141.73" xml:space="preserve">
<g>
	<g>
		<path fill="#FFFFFF" d="M12.213,55.786L12.213,55.786c0.346-0.308,40.231-37.154,128.618-37.143
			c88.386-0.016,125.87,36.794,126.229,37.143c-2.891-0.861-56.396-22.705-125.683-22.705
			C55.682,33.092,11.121,56.708,12.213,55.786"/>
		<path fill="#FFFFFF" d="M12.213,83.688L12.213,83.688c0.346,0.308,40.231,37.154,128.618,37.143
			c88.386,0.016,125.87-36.794,126.229-37.143c-2.891,0.861-56.396,22.705-125.683,22.705
			C55.682,106.382,11.121,82.766,12.213,83.688"/>
	</g>
	<path fill="#FFFFFF" d="M28.193,81.891c1.418-0.128,2.301-0.396,2.651-0.801c0.352-0.408,0.526-1.34,0.526-2.796V62.955
		c0-1.233-0.196-2.045-0.588-2.439c-0.395-0.391-1.258-0.638-2.589-0.741v-0.658h9.805c3.148,0,5.557,0.582,7.227,1.746
		c1.67,1.164,2.506,2.698,2.506,4.6c0,2.411-0.925,4.157-2.778,5.24c-1.851,1.083-4.169,1.626-6.955,1.626
		c-0.399,0-0.91-0.009-1.534-0.027c-0.622-0.018-1.086-0.024-1.389-0.024v6.431c0,1.331,0.216,2.168,0.646,2.509
		c0.428,0.348,1.387,0.571,2.876,0.674v0.657H28.193V81.891L28.193,81.891z M40.74,61.088c-1.053-0.437-2.384-0.66-3.994-0.66
		c-0.763,0-1.233,0.076-1.407,0.218c-0.176,0.145-0.265,0.464-0.265,0.961v9.234c0.667,0.058,1.102,0.091,1.309,0.103
		c0.206,0.014,0.406,0.018,0.598,0.018c1.708,0,3.051-0.23,4.032-0.691c1.779-0.841,2.669-2.415,2.669-4.721
		C43.681,63.382,42.7,61.895,40.74,61.088"/>
	<path fill="#FFFFFF" d="M63.423,59.116v0.658c-1.429,0.091-2.355,0.319-2.778,0.682c-0.424,0.363-0.636,1.197-0.636,2.5v11.326
		c0,1.857,0.268,3.303,0.798,4.342c0.992,1.891,2.876,2.836,5.648,2.836c3.037,0,5.077-0.97,6.119-2.905
		c0.58-1.084,0.872-2.756,0.872-5.015V64.32c0-1.924-0.243-3.133-0.727-3.621c-0.484-0.491-1.405-0.798-2.76-0.925v-0.658h8.607
		v0.658c-1.44,0.149-2.381,0.481-2.823,0.994c-0.441,0.513-0.662,1.697-0.662,3.552v9.219c0,2.443-0.395,4.35-1.182,5.724
		c-1.452,2.521-4.212,3.786-8.279,3.786c-4.018,0-6.754-1.244-8.206-3.735c-0.787-1.338-1.182-3.102-1.182-5.291V62.956
		c0-1.291-0.208-2.118-0.625-2.481c-0.419-0.364-1.329-0.598-2.733-0.7v-0.658H63.423L63.423,59.116z"/>
	<path fill="#FFFFFF" d="M94.368,59.116v0.658c-1.429,0.091-2.354,0.319-2.778,0.682s-0.635,1.197-0.635,2.5v11.326
		c0,1.857,0.265,3.303,0.798,4.342c0.992,1.891,2.876,2.836,5.648,2.836c3.037,0,5.077-0.97,6.119-2.905
		c0.58-1.084,0.873-2.756,0.873-5.015V64.32c0-1.924-0.244-3.133-0.728-3.621c-0.484-0.491-1.405-0.798-2.76-0.925v-0.658h8.607
		v0.658c-1.44,0.149-2.381,0.481-2.823,0.994c-0.441,0.513-0.662,1.697-0.662,3.552v9.219c0,2.443-0.395,4.35-1.182,5.724
		c-1.452,2.521-4.212,3.786-8.28,3.786c-4.018,0-6.754-1.244-8.206-3.735c-0.787-1.338-1.182-3.102-1.182-5.291V62.956
		c0-1.291-0.208-2.118-0.625-2.481c-0.419-0.364-1.329-0.598-2.734-0.7v-0.658H94.368L94.368,59.116z"/>
	<path fill="#FFFFFF" d="M114.673,81.891c1.428-0.128,2.32-0.391,2.67-0.792s0.526-1.336,0.526-2.805V62.955
		c0-1.245-0.196-2.061-0.591-2.446c-0.392-0.386-1.26-0.631-2.605-0.736v-0.656h10.296c2.142,0,3.927,0.259,5.356,0.776
		c2.711,0.979,4.067,2.78,4.067,5.405c0,1.762-0.602,3.113-1.806,4.059c-1.204,0.943-2.843,1.565-4.913,1.864l7.663,8.989
		c0.472,0.549,0.945,0.95,1.417,1.202c0.471,0.252,1.078,0.41,1.815,0.479v0.657h-5.989l-9.301-10.913l-1.631,0.087v6.979
		c0,1.312,0.207,2.141,0.626,2.491c0.417,0.35,1.327,0.584,2.731,0.698v0.657h-10.331V81.891L114.673,81.891z M127.384,69.613
		c1.973-0.771,2.959-2.221,2.959-4.351c0-2.047-0.883-3.445-2.652-4.194c-0.943-0.401-2.196-0.602-3.757-0.602
		c-1.053,0-1.699,0.071-1.933,0.214c-0.236,0.145-0.354,0.481-0.354,1.01v8.719C124.32,70.315,126.232,70.052,127.384,69.613"/>
	<path fill="#FFFFFF" d="M157.47,79.149c0.37-0.27,0.766-0.405,1.188-0.405c0.838,0,1.454,0.49,1.854,1.47
		c0.4,0.979,0.824,1.469,1.271,1.469c0.484,0,0.821-0.203,1.01-0.604c0.186-0.403,0.279-1.105,0.279-2.106V62.955
		c0-1.313-0.223-2.154-0.671-2.524c-0.447-0.368-1.374-0.589-2.777-0.656v-0.658h10.676v0.658c-1.44,0.081-2.38,0.326-2.805,0.734
		c-0.432,0.41-0.646,1.224-0.646,2.446v13.004c0,2.375-0.601,4.134-1.797,5.273c-1.2,1.155-2.683,1.73-4.448,1.73
		c-1.162,0-2.066-0.254-2.719-0.761c-0.645-0.508-0.967-1.072-0.967-1.694C156.918,79.872,157.1,79.422,157.47,79.149"/>
	<path fill="#FFFFFF" d="M179.945,61.746c2.285-2.087,5.102-3.131,8.441-3.131c3.354,0,6.175,1.05,8.463,3.148
		c2.48,2.27,3.722,5.296,3.722,9.078c0,3.84-1.281,6.895-3.852,9.165c-2.299,2.029-5.075,3.043-8.333,3.043
		c-3.484,0-6.377-1.123-8.677-3.371c-2.337-2.295-3.503-5.24-3.503-8.837C176.207,67.059,177.453,64.026,179.945,61.746
		 M182.726,79.098c1.536,1.782,3.43,2.67,5.671,2.67c2.191,0,4.069-0.865,5.626-2.601c1.56-1.734,2.334-4.511,2.334-8.326
		c0-3.862-0.785-6.651-2.36-8.369c-1.575-1.719-3.441-2.578-5.6-2.578c-2.229,0-4.119,0.89-5.662,2.671
		c-1.545,1.782-2.315,4.54-2.315,8.275C180.419,74.565,181.188,77.316,182.726,79.098"/>
	<path fill="#FFFFFF" d="M208.438,75.423c0.627,1.59,1.365,2.858,2.21,3.804c1.475,1.648,3.308,2.474,5.497,2.474
		c1.183,0,2.205-0.357,3.072-1.073c0.864-0.713,1.296-1.71,1.296-2.99c0-1.152-0.435-2.155-1.304-3.01
		c-0.572-0.542-1.765-1.354-3.588-2.438l-3.174-1.884c-0.954-0.577-1.717-1.159-2.285-1.748c-1.053-1.117-1.58-2.35-1.58-3.699
		c0-1.789,0.626-3.276,1.87-4.462c1.248-1.188,2.9-1.782,4.959-1.782c0.847,0,1.866,0.198,3.059,0.598
		c1.189,0.397,1.873,0.595,2.043,0.595c0.459,0,0.779-0.103,0.952-0.31c0.176-0.207,0.31-0.501,0.409-0.883h0.762l0.816,7.539
		h-0.889c-0.605-2.27-1.576-3.855-2.916-4.754c-1.336-0.901-2.658-1.349-3.965-1.349c-1.016,0-1.904,0.285-2.66,0.856
		c-0.756,0.571-1.135,1.362-1.135,2.377c0,0.91,0.29,1.688,0.869,2.334c0.578,0.658,1.48,1.342,2.701,2.058l3.266,1.92
		c2.043,1.197,3.488,2.299,4.326,3.302c0.826,1.015,1.238,2.213,1.238,3.597c0,1.855-0.736,3.405-2.205,4.651
		c-1.47,1.244-3.353,1.867-5.638,1.867c-1.152,0-2.351-0.208-3.604-0.623c-1.253-0.412-1.971-0.622-2.151-0.622
		c-0.438,0-0.729,0.128-0.884,0.382c-0.149,0.252-0.249,0.523-0.301,0.812h-0.816l-1.106-7.539H208.438L208.438,75.423z"/>
	<path fill="#FFFFFF" d="M231.231,81.891c1.365-0.137,2.255-0.37,2.658-0.698c0.408-0.323,0.612-1.155,0.612-2.484V62.955
		c0-1.258-0.202-2.079-0.604-2.464c-0.396-0.386-1.289-0.624-2.667-0.716v-0.658h19.752l0.13,5.066h-0.945
		c-0.312-1.561-0.785-2.571-1.415-3.03c-0.632-0.457-2.035-0.687-4.21-0.687h-5.067c-0.547,0-0.881,0.083-1.011,0.25
		c-0.124,0.169-0.191,0.481-0.191,0.941v7.902h5.737c1.586,0,2.598-0.221,3.035-0.671c0.435-0.446,0.785-1.349,1.053-2.718h0.869
		v8.184h-0.869c-0.279-1.376-0.638-2.283-1.07-2.725c-0.436-0.446-1.441-0.667-3.018-0.667h-5.737v8.766
		c0,0.704,0.236,1.119,0.702,1.246c0.469,0.13,1.864,0.192,4.193,0.192c2.519,0,4.378-0.264,5.579-0.79
		c1.203-0.523,2.28-1.793,3.236-3.812h1.033l-1.686,5.982h-20.101V81.891L231.231,81.891z M247.644,53.27
		c-0.194,0.219-0.479,0.444-0.852,0.674l-5.723,3.443h-1.507l5.468-5.238c0.191-0.185,0.437-0.376,0.727-0.573
		s0.598-0.294,0.926-0.294c0.312,0,0.6,0.107,0.861,0.323c0.262,0.209,0.39,0.491,0.39,0.838
		C247.934,52.775,247.837,53.052,247.644,53.27"/>
	<path fill="#FFFFFF" d="M70.068,94.018c0.232,0.588,0.504,1.055,0.816,1.404c0.544,0.606,1.222,0.912,2.029,0.912
		c0.437,0,0.816-0.134,1.135-0.395c0.319-0.264,0.477-0.634,0.477-1.104c0-0.426-0.16-0.797-0.481-1.113
		c-0.209-0.198-0.651-0.501-1.325-0.898l-1.17-0.7c-0.353-0.21-0.633-0.424-0.843-0.643c-0.391-0.412-0.584-0.867-0.584-1.364
		c0-0.66,0.229-1.211,0.691-1.647c0.459-0.441,1.07-0.658,1.828-0.658c0.314,0,0.691,0.073,1.131,0.219
		c0.439,0.149,0.691,0.221,0.753,0.221l0.353-0.114l0.151-0.325h0.281l0.301,2.783h-0.328c-0.223-0.839-0.582-1.423-1.075-1.755
		c-0.495-0.333-0.983-0.5-1.465-0.5c-0.377,0-0.705,0.107-0.983,0.316c-0.279,0.21-0.419,0.505-0.419,0.879
		c0,0.337,0.107,0.624,0.321,0.86c0.214,0.241,0.546,0.498,0.999,0.761l1.204,0.709c0.756,0.441,1.289,0.85,1.597,1.22
		c0.305,0.375,0.459,0.816,0.459,1.329c0,0.683-0.271,1.258-0.816,1.717c-0.542,0.46-1.235,0.689-2.081,0.689
		c-0.426,0-0.87-0.076-1.331-0.229c-0.462-0.154-0.727-0.23-0.794-0.23l-0.326,0.141L70.463,96.8h-0.301l-0.408-2.782H70.068
		L70.068,94.018z"/>
	<path fill="#FFFFFF" d="M83.43,88.053c0.524,0.141,0.816,0.212,0.878,0.212l0.368-0.101l0.243-0.323h0.288l0.127,2.941H85.02
		c-0.185-0.587-0.423-1.057-0.718-1.411c-0.564-0.676-1.32-1.011-2.272-1.011c-0.961,0-1.748,0.363-2.357,1.084
		c-0.611,0.725-0.914,1.722-0.914,2.988c0,1.166,0.319,2.098,0.961,2.796c0.64,0.693,1.454,1.044,2.438,1.044
		c0.709,0,1.364-0.163,1.964-0.486c0.343-0.183,0.72-0.46,1.133-0.83l0.254,0.241c-0.303,0.365-0.682,0.689-1.133,0.966
		c-0.769,0.468-1.603,0.7-2.5,0.7c-1.476,0-2.647-0.448-3.514-1.345c-0.8-0.83-1.2-1.866-1.2-3.11c0-1.271,0.421-2.342,1.267-3.205
		c0.89-0.907,2.047-1.362,3.472-1.362C82.398,87.841,82.909,87.912,83.43,88.053"/>
	<path fill="#FFFFFF" d="M86.199,96.406c0.535-0.056,0.872-0.149,1.005-0.285c0.134-0.134,0.201-0.482,0.201-1.046v-5.662
		c0-0.468-0.073-0.771-0.225-0.914c-0.149-0.139-0.475-0.226-0.981-0.259v-0.243h3.809v0.243c-0.504,0.033-0.83,0.12-0.981,0.259
		c-0.151,0.143-0.228,0.446-0.228,0.914v2.549h4.172v-2.549c0-0.468-0.074-0.771-0.223-0.914c-0.147-0.139-0.475-0.226-0.985-0.259
		v-0.243h3.809v0.243c-0.504,0.033-0.832,0.12-0.981,0.259c-0.149,0.143-0.225,0.446-0.225,0.914v5.817
		c0,0.476,0.076,0.776,0.225,0.912c0.149,0.132,0.478,0.219,0.981,0.264v0.24h-3.809v-0.24c0.542-0.052,0.878-0.143,1.01-0.279
		c0.132-0.138,0.199-0.488,0.199-1.052v-2.538h-4.172v2.693c0,0.476,0.076,0.776,0.228,0.915c0.152,0.134,0.478,0.221,0.981,0.261
		v0.24h-3.809V96.406L86.199,96.406z"/>
	<path fill="#FFFFFF" d="M97.685,88.968c0.843-0.771,1.882-1.155,3.118-1.155c1.237,0,2.279,0.386,3.124,1.159
		c0.917,0.841,1.374,1.958,1.374,3.354c0,1.416-0.476,2.545-1.421,3.383c-0.85,0.749-1.875,1.124-3.077,1.124
		c-1.289,0-2.357-0.415-3.205-1.244c-0.863-0.848-1.295-1.934-1.295-3.263C96.302,90.93,96.764,89.811,97.685,88.968 M98.71,95.374
		c0.569,0.657,1.267,0.987,2.094,0.987c0.81,0,1.503-0.321,2.078-0.963c0.576-0.641,0.861-1.664,0.861-3.073
		c0-1.427-0.29-2.457-0.872-3.09c-0.582-0.636-1.271-0.952-2.067-0.952c-0.823,0-1.521,0.329-2.091,0.987
		c-0.569,0.658-0.854,1.675-0.854,3.055C97.859,93.699,98.142,94.716,98.71,95.374"/>
	<path fill="#FFFFFF" d="M107.601,88.968c0.843-0.771,1.882-1.155,3.117-1.155c1.238,0,2.28,0.386,3.124,1.159
		c0.915,0.841,1.374,1.958,1.374,3.354c0,1.416-0.473,2.545-1.421,3.383c-0.849,0.749-1.875,1.124-3.077,1.124
		c-1.289,0-2.357-0.415-3.207-1.244c-0.86-0.848-1.293-1.934-1.293-3.263C106.218,90.93,106.68,89.811,107.601,88.968
		 M108.626,95.374c0.568,0.657,1.267,0.987,2.094,0.987c0.81,0,1.503-0.321,2.079-0.963c0.573-0.641,0.861-1.664,0.861-3.073
		c0-1.427-0.29-2.457-0.872-3.09c-0.582-0.636-1.271-0.952-2.067-0.952c-0.823,0-1.521,0.329-2.092,0.987
		c-0.568,0.658-0.854,1.675-0.854,3.055C107.774,93.699,108.058,94.716,108.626,95.374"/>
	<path fill="#FFFFFF" d="M115.878,96.406c0.567-0.056,0.932-0.177,1.093-0.366c0.16-0.189,0.24-0.629,0.24-1.319v-5.763
		l-0.187-0.212c-0.2-0.221-0.372-0.363-0.512-0.414c-0.141-0.054-0.353-0.083-0.634-0.092v-0.243h2.344l5.298,6.255v-4.344
		c0-0.714-0.112-1.18-0.334-1.396c-0.148-0.141-0.473-0.232-0.979-0.272v-0.243h3.224v0.243c-0.522,0.049-0.872,0.17-1.046,0.363
		c-0.174,0.192-0.261,0.627-0.261,1.316v6.883h-0.234l-6.074-7.171v5.089c0,0.713,0.109,1.179,0.328,1.396
		c0.143,0.143,0.463,0.238,0.959,0.29v0.24h-3.225V96.406L115.878,96.406z"/>
	<path fill="#FFFFFF" d="M125.862,96.406c0.535-0.056,0.872-0.149,1.006-0.285c0.134-0.134,0.2-0.482,0.2-1.046v-5.662
		c0-0.468-0.073-0.771-0.225-0.914c-0.149-0.139-0.475-0.226-0.981-0.259v-0.243h3.807v0.243c-0.502,0.033-0.828,0.12-0.979,0.259
		c-0.152,0.143-0.226,0.446-0.226,0.914v2.549h4.17v-2.549c0-0.468-0.073-0.771-0.223-0.914c-0.147-0.139-0.475-0.226-0.986-0.259
		v-0.243h3.809v0.243c-0.504,0.033-0.832,0.12-0.981,0.259c-0.149,0.143-0.225,0.446-0.225,0.914v5.817
		c0,0.476,0.076,0.776,0.225,0.912c0.149,0.132,0.477,0.219,0.981,0.264v0.24h-3.809v-0.24c0.542-0.052,0.879-0.143,1.011-0.279
		c0.131-0.138,0.198-0.488,0.198-1.052v-2.538h-4.17v2.693c0,0.476,0.074,0.776,0.226,0.915c0.151,0.134,0.477,0.221,0.979,0.261
		v0.24h-3.807V96.406L125.862,96.406z"/>
	<path fill="#FFFFFF" d="M135.709,96.406c0.506-0.052,0.832-0.139,0.981-0.257c0.152-0.122,0.226-0.43,0.226-0.919v-5.817
		c0-0.464-0.074-0.767-0.221-0.909c-0.148-0.141-0.475-0.23-0.986-0.264v-0.243h7.293l0.047,1.869h-0.347
		c-0.116-0.575-0.29-0.948-0.527-1.12c-0.229-0.169-0.749-0.254-1.551-0.254h-1.869c-0.203,0-0.328,0.033-0.375,0.094l-0.071,0.348
		v2.919h2.12c0.585,0,0.959-0.082,1.12-0.247c0.159-0.168,0.29-0.502,0.388-1.006h0.321v3.023h-0.321
		c-0.102-0.511-0.233-0.843-0.394-1.006c-0.162-0.165-0.534-0.249-1.114-0.249h-2.12v3.239c0,0.259,0.087,0.411,0.259,0.46
		c0.174,0.044,0.689,0.071,1.547,0.071c0.932,0,1.619-0.099,2.06-0.292c0.447-0.194,0.843-0.665,1.196-1.409h0.381l-0.622,2.209
		h-7.421V96.406L135.709,96.406z"/>
	<path fill="#FFFFFF" d="M144.164,96.406c0.557-0.04,0.921-0.12,1.086-0.238c0.167-0.121,0.25-0.436,0.25-0.938v-5.817
		c0-0.481-0.083-0.789-0.25-0.93c-0.165-0.136-0.529-0.219-1.086-0.243v-0.243h4.062v0.243c-0.559,0.024-0.921,0.107-1.086,0.243
		c-0.163,0.141-0.245,0.448-0.245,0.93v5.817c0,0.502,0.082,0.816,0.245,0.938c0.165,0.118,0.527,0.198,1.086,0.238v0.24h-4.062
		V96.406L144.164,96.406z"/>
	<path fill="#FFFFFF" d="M148.736,96.406c0.499-0.052,0.827-0.139,0.979-0.259s0.228-0.428,0.228-0.917v-5.817
		c0-0.479-0.073-0.782-0.221-0.919c-0.147-0.136-0.478-0.221-0.985-0.256v-0.241h3.701c1.246,0,2.301,0.192,3.164,0.587
		c1.554,0.702,2.332,1.958,2.332,3.766c0,0.653-0.142,1.271-0.421,1.86c-0.279,0.586-0.698,1.081-1.262,1.487
		c-0.357,0.254-0.729,0.448-1.113,0.577c-0.7,0.25-1.565,0.372-2.587,0.372h-3.814V96.406L148.736,96.406z M151.502,96.061
		c0.108,0.069,0.336,0.103,0.679,0.103c1.073,0,1.956-0.203,2.65-0.606c1.062-0.622,1.594-1.686,1.594-3.191
		c0-1.34-0.438-2.35-1.313-3.027c-0.752-0.578-1.746-0.872-2.983-0.872c-0.309,0-0.518,0.035-0.626,0.096
		c-0.11,0.066-0.166,0.207-0.166,0.426v6.651C151.336,95.854,151.392,95.989,151.502,96.061"/>
	<path fill="#FFFFFF" d="M159.314,94.018c0.232,0.588,0.504,1.055,0.816,1.404c0.546,0.606,1.222,0.912,2.029,0.912
		c0.437,0,0.816-0.134,1.135-0.395c0.319-0.264,0.478-0.634,0.478-1.104c0-0.426-0.161-0.797-0.481-1.113
		c-0.209-0.198-0.651-0.501-1.325-0.898l-1.171-0.7c-0.352-0.21-0.632-0.424-0.842-0.643c-0.391-0.412-0.584-0.867-0.584-1.364
		c0-0.66,0.229-1.211,0.69-1.647c0.459-0.441,1.07-0.658,1.831-0.658c0.312,0,0.689,0.073,1.128,0.219
		c0.442,0.149,0.692,0.221,0.754,0.221l0.353-0.114l0.151-0.325h0.28l0.304,2.783h-0.33c-0.223-0.839-0.582-1.423-1.074-1.755
		c-0.495-0.333-0.984-0.5-1.466-0.5c-0.377,0-0.701,0.107-0.983,0.316c-0.278,0.21-0.419,0.505-0.419,0.879
		c0,0.337,0.107,0.624,0.321,0.86c0.213,0.241,0.547,0.498,0.999,0.761l1.204,0.709c0.757,0.441,1.289,0.85,1.599,1.22
		c0.304,0.375,0.458,0.816,0.458,1.329c0,0.683-0.272,1.258-0.817,1.717c-0.541,0.46-1.235,0.689-2.08,0.689
		c-0.424,0-0.865-0.076-1.331-0.229c-0.462-0.154-0.728-0.23-0.794-0.23l-0.325,0.141l-0.109,0.299h-0.304l-0.407-2.782H159.314
		L159.314,94.018z"/>
	<path fill="#FFFFFF" d="M166.953,94.018c0.229,0.588,0.504,1.055,0.812,1.404c0.546,0.606,1.222,0.912,2.029,0.912
		c0.439,0,0.818-0.134,1.135-0.395c0.322-0.264,0.478-0.634,0.478-1.104c0-0.426-0.155-0.797-0.482-1.113
		c-0.209-0.198-0.65-0.501-1.324-0.898l-1.171-0.7c-0.349-0.21-0.631-0.424-0.843-0.643c-0.39-0.412-0.584-0.867-0.584-1.364
		c0-0.66,0.232-1.211,0.693-1.647c0.457-0.441,1.068-0.658,1.829-0.658c0.313,0,0.69,0.073,1.128,0.219
		c0.441,0.149,0.693,0.221,0.754,0.221l0.352-0.114l0.155-0.325h0.28l0.302,2.783h-0.328c-0.226-0.839-0.584-1.423-1.078-1.755
		c-0.492-0.333-0.983-0.5-1.464-0.5c-0.377,0-0.701,0.107-0.981,0.316c-0.279,0.21-0.422,0.505-0.422,0.879
		c0,0.337,0.11,0.624,0.323,0.86c0.212,0.241,0.549,0.498,0.998,0.761l1.206,0.709c0.755,0.441,1.287,0.85,1.598,1.22
		c0.304,0.375,0.457,0.816,0.457,1.329c0,0.683-0.271,1.258-0.815,1.717c-0.542,0.46-1.237,0.689-2.083,0.689
		c-0.422,0-0.866-0.076-1.331-0.229c-0.462-0.154-0.728-0.23-0.794-0.23l-0.322,0.141l-0.11,0.299h-0.304l-0.41-2.782H166.953
		L166.953,94.018z"/>
	<path fill="#FFFFFF" d="M173.904,96.647v-0.243c0.353-0.037,0.618-0.165,0.792-0.379c0.18-0.214,0.481-0.805,0.909-1.764
		l2.861-6.417h0.274l3.422,7.412c0.226,0.49,0.409,0.791,0.546,0.911c0.135,0.116,0.364,0.196,0.686,0.236v0.243H179.9v-0.243
		c0.404-0.033,0.662-0.075,0.778-0.122l0.174-0.359l-0.065-0.339l-0.188-0.506l-0.549-1.26h-3.619
		c-0.356,0.856-0.568,1.378-0.637,1.567l-0.105,0.448c0,0.219,0.094,0.372,0.281,0.457c0.116,0.049,0.334,0.089,0.656,0.113v0.243
		H173.904L173.904,96.647z M179.818,93.29l-1.574-3.602l-1.58,3.602H179.818L179.818,93.29z"/>
	<path fill="#FFFFFF" d="M183.771,96.406c0.508-0.052,0.831-0.139,0.983-0.257c0.149-0.122,0.223-0.43,0.223-0.919v-5.817
		c0-0.464-0.073-0.767-0.221-0.909c-0.147-0.141-0.475-0.23-0.985-0.264v-0.243h3.875v0.243c-0.506,0.024-0.845,0.103-1.017,0.234
		c-0.171,0.134-0.256,0.417-0.256,0.85v6.283l0.075,0.342l0.342,0.153l0.322,0.029c0.114,0.005,0.328,0.007,0.643,0.007
		c1.222,0,2.047-0.096,2.478-0.288c0.429-0.193,0.846-0.685,1.246-1.469h0.352l-0.673,2.265h-7.387V96.406L183.771,96.406z"/>
	<path fill="#FFFFFF" d="M193.793,88.968c0.847-0.771,1.886-1.155,3.12-1.155c1.236,0,2.28,0.386,3.126,1.159
		c0.911,0.841,1.37,1.958,1.37,3.354c0,1.416-0.475,2.545-1.422,3.383c-0.848,0.749-1.871,1.124-3.074,1.124
		c-1.289,0-2.355-0.415-3.207-1.244c-0.861-0.848-1.291-1.934-1.291-3.263C192.415,90.93,192.875,89.811,193.793,88.968
		 M194.82,95.374c0.571,0.657,1.267,0.987,2.095,0.987c0.811,0,1.503-0.321,2.075-0.963c0.577-0.641,0.865-1.664,0.865-3.073
		c0-1.427-0.29-2.457-0.874-3.09c-0.582-0.636-1.27-0.952-2.066-0.952c-0.824,0-1.52,0.329-2.09,0.987
		c-0.571,0.658-0.856,1.675-0.856,3.055C193.969,93.699,194.253,94.716,194.82,95.374"/>
	<path fill="#FFFFFF" d="M202.073,96.406c0.569-0.056,0.933-0.177,1.094-0.366c0.163-0.189,0.243-0.629,0.243-1.319v-5.763
		l-0.19-0.212c-0.201-0.221-0.372-0.363-0.512-0.414c-0.142-0.054-0.354-0.083-0.635-0.092v-0.243h2.345l5.3,6.255v-4.344
		c0-0.714-0.114-1.18-0.337-1.396c-0.147-0.141-0.471-0.232-0.979-0.272v-0.243h3.226v0.243c-0.522,0.049-0.87,0.17-1.043,0.363
		c-0.178,0.192-0.265,0.627-0.265,1.316v6.883h-0.233l-6.074-7.171v5.089c0,0.713,0.109,1.179,0.329,1.396
		c0.141,0.143,0.464,0.238,0.957,0.29v0.24h-3.225V96.406L202.073,96.406z"/>
</g>
</svg>
